<?xml version="1.0" standalone="no"?>
<!DOCTYPE svg PUBLIC "-//W3C//DTD SVG 20010904//EN"
 "http://www.w3.org/TR/2001/REC-SVG-20010904/DTD/svg10.dtd">
<svg version="1.0" xmlns="http://www.w3.org/2000/svg"
 width="404.000000pt" height="316.000000pt" viewBox="0 0 404.000000 316.000000"
 preserveAspectRatio="xMidYMid meet">
<metadata>
Created by potrace 1.16, written by Peter Selinger 2001-2019
</metadata>
<g transform="translate(0.000000,316.000000) scale(0.100000,-0.100000)"
fill="#000000" stroke="none">
<path d="M2040 2639 c-58 -50 -65 -52 -98 -24 -28 23 -38 25 -133 25 l-104 0
-115 -196 c-178 -303 -168 -283 -146 -296 11 -6 58 -45 105 -87 47 -42 148
-129 224 -194 75 -65 137 -124 137 -131 0 -17 -84 -186 -105 -211 -9 -11 -14
-14 -10 -8 4 9 1 11 -9 7 -9 -3 -14 -10 -11 -14 6 -9 -82 -17 -368 -31 l-218
-11 -39 36 c-22 20 -45 34 -52 32 -7 -1 -10 -1 -5 1 10 7 9 31 -4 51 -10 16
11 55 134 255 98 159 144 242 140 254 -4 10 -2 14 5 10 6 -4 21 7 34 25 l23
33 -38 -29 c-23 -18 -37 -37 -37 -51 0 -18 -44 -55 -207 -177 -115 -85 -223
-164 -240 -177 -41 -28 -45 -68 -8 -77 30 -7 34 -34 4 -34 -11 0 -18 -4 -15
-9 4 -5 44 -12 90 -16 90 -8 139 -25 71 -25 -22 0 -56 4 -75 9 -19 5 -50 12
-67 15 -32 5 -33 4 -33 -29 0 -30 11 -44 94 -121 57 -52 96 -96 98 -110 2 -16
60 -69 188 -173 102 -83 190 -151 197 -151 6 0 13 -6 15 -14 2 -8 143 -147
313 -310 l310 -296 90 5 c123 8 152 14 159 33 3 10 52 156 109 327 l104 310
350 179 351 180 4 45 c5 53 3 58 -14 43 -7 -5 -49 -12 -93 -16 -72 -4 -75 -4
-30 5 28 6 60 12 73 15 14 3 22 12 22 24 0 13 9 22 25 26 22 5 25 11 25 52 0
39 -2 43 -12 29 -7 -9 -22 -24 -33 -33 -16 -13 -17 -15 -2 -10 9 3 17 1 17 -4
0 -10 -13 -14 -40 -11 -12 2 -12 0 -1 -7 28 -19 -15 -24 -262 -32 l-252 -8
-36 26 c-20 15 -89 69 -152 120 l-116 93 25 57 c14 31 29 66 34 77 23 48 110
260 110 268 0 12 -200 460 -212 475 -7 8 -36 11 -87 10 l-76 -2 78 -5 77 -6
-36 -54 -37 -55 2 -144 c1 -79 4 -151 7 -160 2 -10 -1 -5 -8 9 -8 17 -13 69
-13 138 0 94 -3 112 -16 116 -17 6 -57 45 -45 45 4 0 18 -7 32 -16 13 -9 27
-14 30 -11 3 3 -5 11 -18 18 -12 6 -41 26 -63 43 -21 17 -45 30 -51 28 -7 -1
-16 3 -20 9 -5 9 -2 10 12 5 15 -6 17 -5 7 5 -18 18 -16 27 5 32 11 3 9 5 -8
5 -14 1 -40 -12 -60 -29z m218 -934 c20 -7 14 -19 -29 -69 l-41 -46 -74 0 -74
0 1 -42 c0 -35 2 -39 9 -21 13 31 55 56 80 48 12 -4 30 -21 41 -38 l19 -32 0
34 c0 24 11 46 41 82 63 76 73 69 65 -48 -14 -182 -31 -222 -105 -243 -43 -13
-263 0 -267 15 -5 16 113 95 144 96 16 1 20 3 10 6 -10 2 -21 15 -24 29 -8 31
-24 31 -24 -1 0 -19 -15 -36 -62 -70 -74 -55 -85 -50 -70 32 6 32 14 94 18
138 5 70 10 84 36 111 l30 32 131 -5 c73 -2 138 -6 145 -8z"/>
</g>
</svg>
